<mxfile host="app.diagrams.net" modified="2022-04-08T20:12:29.015Z" agent="5.0 (Windows)" etag="feIIlF7oa-BRVbOCIesL" version="17.4.1" type="github">
  <diagram id="5Rl2E7YkQ2Qzgk_aF65r" name="BigData">
    <mxGraphModel dx="2272" dy="701" grid="1" gridSize="10" guides="1" tooltips="1" connect="1" arrows="1" fold="1" page="1" pageScale="1" pageWidth="850" pageHeight="1100" math="0" shadow="0">
      <root>
        <mxCell id="0" />
        <mxCell id="1" parent="0" />
        <mxCell id="8WD0OpO59DViS9RUcPrg-6" value="" style="edgeStyle=orthogonalEdgeStyle;rounded=0;orthogonalLoop=1;jettySize=auto;html=1;strokeWidth=3;" edge="1" parent="1" source="8WD0OpO59DViS9RUcPrg-1" target="8WD0OpO59DViS9RUcPrg-5">
          <mxGeometry relative="1" as="geometry" />
        </mxCell>
        <mxCell id="8WD0OpO59DViS9RUcPrg-45" style="edgeStyle=entityRelationEdgeStyle;rounded=1;orthogonalLoop=1;jettySize=auto;elbow=vertical;html=1;entryX=0;entryY=0.5;entryDx=0;entryDy=0;endArrow=classic;endFill=1;strokeWidth=3;" edge="1" parent="1" source="8WD0OpO59DViS9RUcPrg-1" target="8WD0OpO59DViS9RUcPrg-35">
          <mxGeometry relative="1" as="geometry" />
        </mxCell>
        <mxCell id="8WD0OpO59DViS9RUcPrg-1" value="&lt;div&gt;Big Data&lt;/div&gt;" style="ellipse;shape=cloud;whiteSpace=wrap;html=1;rounded=1;" vertex="1" parent="1">
          <mxGeometry x="-750" y="470" width="120" height="80" as="geometry" />
        </mxCell>
        <mxCell id="8WD0OpO59DViS9RUcPrg-8" value="" style="edgeStyle=orthogonalEdgeStyle;rounded=0;orthogonalLoop=1;jettySize=auto;html=1;curved=1;strokeWidth=2;" edge="1" parent="1" source="8WD0OpO59DViS9RUcPrg-5" target="8WD0OpO59DViS9RUcPrg-7">
          <mxGeometry relative="1" as="geometry" />
        </mxCell>
        <mxCell id="8WD0OpO59DViS9RUcPrg-16" style="edgeStyle=orthogonalEdgeStyle;rounded=0;orthogonalLoop=1;jettySize=auto;html=1;exitX=1;exitY=0.5;exitDx=0;exitDy=0;entryX=0;entryY=0.5;entryDx=0;entryDy=0;curved=1;strokeWidth=2;" edge="1" parent="1" source="8WD0OpO59DViS9RUcPrg-5" target="8WD0OpO59DViS9RUcPrg-15">
          <mxGeometry relative="1" as="geometry" />
        </mxCell>
        <mxCell id="8WD0OpO59DViS9RUcPrg-17" style="edgeStyle=orthogonalEdgeStyle;rounded=0;orthogonalLoop=1;jettySize=auto;html=1;entryX=0;entryY=0.5;entryDx=0;entryDy=0;curved=1;strokeWidth=2;" edge="1" parent="1" source="8WD0OpO59DViS9RUcPrg-5" target="8WD0OpO59DViS9RUcPrg-14">
          <mxGeometry relative="1" as="geometry" />
        </mxCell>
        <mxCell id="8WD0OpO59DViS9RUcPrg-5" value="3 Properties" style="rounded=1;whiteSpace=wrap;html=1;" vertex="1" parent="1">
          <mxGeometry x="-550" y="480" width="120" height="60" as="geometry" />
        </mxCell>
        <mxCell id="8WD0OpO59DViS9RUcPrg-28" style="edgeStyle=elbowEdgeStyle;rounded=1;orthogonalLoop=1;jettySize=auto;elbow=vertical;html=1;entryX=0;entryY=0.5;entryDx=0;entryDy=0;endArrow=none;endFill=0;strokeWidth=3;" edge="1" parent="1" source="8WD0OpO59DViS9RUcPrg-7" target="8WD0OpO59DViS9RUcPrg-26">
          <mxGeometry relative="1" as="geometry" />
        </mxCell>
        <mxCell id="8WD0OpO59DViS9RUcPrg-7" value="Variety" style="ellipse;whiteSpace=wrap;html=1;rounded=1;" vertex="1" parent="1">
          <mxGeometry x="-350" y="480" width="120" height="60" as="geometry" />
        </mxCell>
        <mxCell id="8WD0OpO59DViS9RUcPrg-29" style="edgeStyle=elbowEdgeStyle;rounded=1;orthogonalLoop=1;jettySize=auto;elbow=vertical;html=1;entryX=0;entryY=0.5;entryDx=0;entryDy=0;endArrow=none;endFill=0;strokeWidth=3;" edge="1" parent="1" source="8WD0OpO59DViS9RUcPrg-14" target="8WD0OpO59DViS9RUcPrg-27">
          <mxGeometry relative="1" as="geometry" />
        </mxCell>
        <mxCell id="8WD0OpO59DViS9RUcPrg-14" value="Volume" style="ellipse;whiteSpace=wrap;html=1;rounded=1;" vertex="1" parent="1">
          <mxGeometry x="-350" y="570" width="120" height="60" as="geometry" />
        </mxCell>
        <mxCell id="8WD0OpO59DViS9RUcPrg-24" value="" style="edgeStyle=elbowEdgeStyle;rounded=1;orthogonalLoop=1;jettySize=auto;elbow=vertical;html=1;endArrow=none;endFill=0;strokeWidth=3;" edge="1" parent="1" source="8WD0OpO59DViS9RUcPrg-15" target="8WD0OpO59DViS9RUcPrg-23">
          <mxGeometry relative="1" as="geometry" />
        </mxCell>
        <mxCell id="8WD0OpO59DViS9RUcPrg-15" value="Velocity" style="ellipse;whiteSpace=wrap;html=1;rounded=1;" vertex="1" parent="1">
          <mxGeometry x="-350" y="400" width="120" height="60" as="geometry" />
        </mxCell>
        <mxCell id="8WD0OpO59DViS9RUcPrg-23" value="data are growing and changing in a rapid way" style="rounded=0;whiteSpace=wrap;html=1;" vertex="1" parent="1">
          <mxGeometry x="-180" y="400" width="220" height="60" as="geometry" />
        </mxCell>
        <mxCell id="8WD0OpO59DViS9RUcPrg-26" value="data come in different and multiple formats" style="rounded=0;whiteSpace=wrap;html=1;" vertex="1" parent="1">
          <mxGeometry x="-180" y="480" width="220" height="60" as="geometry" />
        </mxCell>
        <mxCell id="8WD0OpO59DViS9RUcPrg-27" value="huge amount of data is generated every&amp;nbsp; second" style="rounded=0;whiteSpace=wrap;html=1;" vertex="1" parent="1">
          <mxGeometry x="-180" y="570" width="220" height="60" as="geometry" />
        </mxCell>
        <mxCell id="8WD0OpO59DViS9RUcPrg-32" value="" style="edgeStyle=orthogonalEdgeStyle;rounded=0;orthogonalLoop=1;jettySize=auto;html=1;curved=1;strokeWidth=2;" edge="1" parent="1" source="8WD0OpO59DViS9RUcPrg-35" target="8WD0OpO59DViS9RUcPrg-37">
          <mxGeometry relative="1" as="geometry" />
        </mxCell>
        <mxCell id="8WD0OpO59DViS9RUcPrg-33" style="edgeStyle=orthogonalEdgeStyle;rounded=0;orthogonalLoop=1;jettySize=auto;html=1;exitX=1;exitY=0.5;exitDx=0;exitDy=0;entryX=0;entryY=0.5;entryDx=0;entryDy=0;curved=1;strokeWidth=2;" edge="1" parent="1" source="8WD0OpO59DViS9RUcPrg-35" target="8WD0OpO59DViS9RUcPrg-41">
          <mxGeometry relative="1" as="geometry" />
        </mxCell>
        <mxCell id="8WD0OpO59DViS9RUcPrg-34" style="edgeStyle=orthogonalEdgeStyle;rounded=0;orthogonalLoop=1;jettySize=auto;html=1;entryX=0;entryY=0.5;entryDx=0;entryDy=0;curved=1;strokeWidth=2;" edge="1" parent="1" source="8WD0OpO59DViS9RUcPrg-35" target="8WD0OpO59DViS9RUcPrg-39">
          <mxGeometry relative="1" as="geometry" />
        </mxCell>
        <mxCell id="8WD0OpO59DViS9RUcPrg-35" value="3 Operations" style="rounded=1;whiteSpace=wrap;html=1;" vertex="1" parent="1">
          <mxGeometry x="-550" y="810" width="120" height="60" as="geometry" />
        </mxCell>
        <mxCell id="8WD0OpO59DViS9RUcPrg-36" style="edgeStyle=elbowEdgeStyle;rounded=1;orthogonalLoop=1;jettySize=auto;elbow=vertical;html=1;entryX=0;entryY=0.5;entryDx=0;entryDy=0;endArrow=none;endFill=0;strokeWidth=3;" edge="1" parent="1" source="8WD0OpO59DViS9RUcPrg-37">
          <mxGeometry relative="1" as="geometry">
            <mxPoint x="-150" y="840" as="targetPoint" />
          </mxGeometry>
        </mxCell>
        <mxCell id="8WD0OpO59DViS9RUcPrg-37" value="Data Streaming" style="ellipse;whiteSpace=wrap;html=1;rounded=1;" vertex="1" parent="1">
          <mxGeometry x="-320" y="810" width="120" height="60" as="geometry" />
        </mxCell>
        <mxCell id="8WD0OpO59DViS9RUcPrg-38" style="edgeStyle=elbowEdgeStyle;rounded=1;orthogonalLoop=1;jettySize=auto;elbow=vertical;html=1;entryX=0;entryY=0.5;entryDx=0;entryDy=0;endArrow=none;endFill=0;strokeWidth=3;" edge="1" parent="1" source="8WD0OpO59DViS9RUcPrg-39">
          <mxGeometry relative="1" as="geometry">
            <mxPoint x="-150" y="930" as="targetPoint" />
          </mxGeometry>
        </mxCell>
        <mxCell id="8WD0OpO59DViS9RUcPrg-39" value="Data Flow" style="ellipse;whiteSpace=wrap;html=1;rounded=1;" vertex="1" parent="1">
          <mxGeometry x="-320" y="900" width="120" height="60" as="geometry" />
        </mxCell>
        <mxCell id="8WD0OpO59DViS9RUcPrg-48" value="" style="edgeStyle=entityRelationEdgeStyle;rounded=1;orthogonalLoop=1;jettySize=auto;html=1;endArrow=classic;endFill=1;strokeWidth=3;elbow=vertical;" edge="1" parent="1" source="8WD0OpO59DViS9RUcPrg-41" target="8WD0OpO59DViS9RUcPrg-47">
          <mxGeometry relative="1" as="geometry" />
        </mxCell>
        <mxCell id="8WD0OpO59DViS9RUcPrg-50" value="" style="edgeStyle=entityRelationEdgeStyle;rounded=1;orthogonalLoop=1;jettySize=auto;html=1;endArrow=classic;endFill=1;strokeWidth=3;elbow=vertical;" edge="1" parent="1" source="8WD0OpO59DViS9RUcPrg-41" target="8WD0OpO59DViS9RUcPrg-49">
          <mxGeometry relative="1" as="geometry" />
        </mxCell>
        <mxCell id="8WD0OpO59DViS9RUcPrg-52" style="edgeStyle=entityRelationEdgeStyle;rounded=1;orthogonalLoop=1;jettySize=auto;html=1;entryX=0;entryY=0.5;entryDx=0;entryDy=0;endArrow=classic;endFill=1;strokeWidth=3;elbow=vertical;" edge="1" parent="1" source="8WD0OpO59DViS9RUcPrg-41" target="8WD0OpO59DViS9RUcPrg-51">
          <mxGeometry relative="1" as="geometry" />
        </mxCell>
        <mxCell id="8WD0OpO59DViS9RUcPrg-41" value="Hadoop" style="ellipse;whiteSpace=wrap;html=1;rounded=1;" vertex="1" parent="1">
          <mxGeometry x="-320" y="730" width="120" height="60" as="geometry" />
        </mxCell>
        <mxCell id="8WD0OpO59DViS9RUcPrg-47" value="ZooKeeper" style="ellipse;whiteSpace=wrap;html=1;rounded=1;" vertex="1" parent="1">
          <mxGeometry x="-100" y="670" width="80" height="30" as="geometry" />
        </mxCell>
        <mxCell id="8WD0OpO59DViS9RUcPrg-49" value="Hive" style="ellipse;whiteSpace=wrap;html=1;rounded=1;" vertex="1" parent="1">
          <mxGeometry x="-100" y="710" width="80" height="30" as="geometry" />
        </mxCell>
        <mxCell id="8WD0OpO59DViS9RUcPrg-51" value="Pig" style="ellipse;whiteSpace=wrap;html=1;rounded=1;" vertex="1" parent="1">
          <mxGeometry x="-100" y="750" width="80" height="30" as="geometry" />
        </mxCell>
      </root>
    </mxGraphModel>
  </diagram>
</mxfile>
